<svg width="72" height="80" viewBox="0 0 72 80" fill="none" xmlns="http://www.w3.org/2000/svg">
<circle cx="13" cy="74" r="6" fill="#8E849C"/>
<circle cx="58" cy="27" r="6" fill="#8E849C"/>
<line x1="11.9165" y1="72.9626" x2="56.9165" y2="25.9626" stroke="#8E849C" stroke-width="3"/>
<path d="M58.5 12.9375C57.7541 12.9375 57.0387 12.6412 56.5113 12.1137C55.9838 11.5863 55.6875 10.8709 55.6875 10.125C55.6875 9.37908 55.9838 8.66371 56.5113 8.13626C57.0387 7.60882 57.7541 7.3125 58.5 7.3125C59.2459 7.3125 59.9613 7.60882 60.4887 8.13626C61.0162 8.66371 61.3125 9.37908 61.3125 10.125C61.3125 10.4943 61.2398 10.8601 61.0984 11.2013C60.9571 11.5425 60.7499 11.8526 60.4887 12.1137C60.2276 12.3749 59.9175 12.5821 59.5763 12.7234C59.2351 12.8648 58.8693 12.9375 58.5 12.9375ZM58.5 2.25C56.4114 2.25 54.4084 3.07969 52.9315 4.55653C51.4547 6.03338 50.625 8.03642 50.625 10.125C50.625 16.0312 58.5 24.75 58.5 24.75C58.5 24.75 66.375 16.0312 66.375 10.125C66.375 8.03642 65.5453 6.03338 64.0685 4.55653C62.5916 3.07969 60.5886 2.25 58.5 2.25Z" fill="#2F22E6"/>
<path d="M13.5 63.9375C12.7541 63.9375 12.0387 63.6412 11.5113 63.1137C10.9838 62.5863 10.6875 61.8709 10.6875 61.125C10.6875 60.3791 10.9838 59.6637 11.5113 59.1363C12.0387 58.6088 12.7541 58.3125 13.5 58.3125C14.2459 58.3125 14.9613 58.6088 15.4887 59.1363C16.0162 59.6637 16.3125 60.3791 16.3125 61.125C16.3125 61.4943 16.2398 61.8601 16.0984 62.2013C15.9571 62.5425 15.7499 62.8526 15.4887 63.1137C15.2276 63.3749 14.9175 63.5821 14.5763 63.7234C14.2351 63.8648 13.8693 63.9375 13.5 63.9375ZM13.5 53.25C11.4114 53.25 9.40838 54.0797 7.93153 55.5565C6.45469 57.0334 5.625 59.0364 5.625 61.125C5.625 67.0312 13.5 75.75 13.5 75.75C13.5 75.75 21.375 67.0312 21.375 61.125C21.375 59.0364 20.5453 57.0334 19.0685 55.5565C17.5916 54.0797 15.5886 53.25 13.5 53.25Z" fill="#EE0D0D"/>
</svg>
